<svg width="244" height="105" viewBox="0 0 244 105" fill="none" xmlns="http://www.w3.org/2000/svg">
<path d="M48.6887 104.288V78.656H0.736691V70.016L51.8567 3.77599H58.4807V69.728H71.1527V78.656H58.4807V104.288H48.6887ZM11.1047 69.728H49.6967V19.184L11.1047 69.728ZM159.122 43.808C159.122 52.256 157.538 59.792 154.37 66.416C151.298 72.944 147.026 78.08 141.554 81.824C136.082 85.568 129.89 87.44 122.978 87.44C116.066 87.44 109.874 85.568 104.402 81.824C99.0261 78.08 94.7541 72.944 91.5861 66.416C88.4181 59.792 86.8341 52.256 86.8341 43.808C86.8341 35.36 88.4181 27.872 91.5861 21.344C94.7541 14.72 99.0261 9.536 104.402 5.79199C109.874 1.952 116.066 0.0319996 122.978 0.0319996C129.89 0.0319996 136.082 1.952 141.554 5.79199C147.026 9.536 151.298 14.72 154.37 21.344C157.538 27.872 159.122 35.36 159.122 43.808ZM149.186 43.808C149.186 36.992 148.082 30.992 145.874 25.808C143.666 20.624 140.594 16.592 136.658 13.712C132.722 10.736 128.162 9.24799 122.978 9.24799C117.794 9.24799 113.234 10.736 109.298 13.712C105.362 16.592 102.242 20.624 99.9381 25.808C97.7301 30.992 96.6261 36.992 96.6261 43.808C96.6261 50.624 97.7301 56.624 99.9381 61.808C102.242 66.992 105.362 71.024 109.298 73.904C113.234 76.784 117.794 78.224 122.978 78.224C128.162 78.224 132.722 76.784 136.658 73.904C140.594 70.928 143.666 66.896 145.874 61.808C148.082 56.624 149.186 50.624 149.186 43.808ZM221.23 104.288V78.656H173.278V70.016L224.398 3.77599H231.022V69.728H243.694V78.656H231.022V104.288H221.23ZM183.646 69.728H222.238V19.184L183.646 69.728Z" fill="#E6E6E6"/>
</svg>
