<svg width="75" height="75" viewBox="0 0 75 75" fill="none" xmlns="http://www.w3.org/2000/svg">
<path d="M69.7756 20.1944L46.1389 7.29052C45.7899 7.09994 45.398 7 44.9996 7C44.6013 7 44.2094 7.09994 43.8603 7.29052L20.2236 20.1944C19.8531 20.3969 19.544 20.6945 19.3288 21.056C19.1135 21.4175 19 21.8297 19 22.2496C19 22.6696 19.1135 23.0818 19.3288 23.4433C19.544 23.8048 19.8531 24.1023 20.2236 24.3049L42.636 36.5401V61.6886L35.4599 57.7705L33.1813 61.8786L43.8603 67.7088C44.2092 67.8998 44.6012 68 44.9996 68C45.3981 68 45.79 67.8998 46.1389 67.7088L69.7756 54.8049C70.1464 54.6025 70.4555 54.305 70.6709 53.9435C70.8863 53.582 70.9999 53.1697 71 52.7497V22.2496C70.9999 21.8296 70.8863 21.4174 70.6709 21.0559C70.4555 20.6943 70.1464 20.3968 69.7756 20.1944ZM44.9996 12.0251L63.7317 22.2496L44.9996 32.4742L26.2675 22.2496L44.9996 12.0251ZM66.2727 51.3631L47.3633 61.6862V36.5377L66.2727 26.2146V51.3631Z" fill="white"/>
<path d="M24 38H5V33H24V38Z" fill="white"/>
<path d="M28 57H9V52H28V57Z" fill="white"/>
<path d="M33 47H14V42H33V47Z" fill="white"/>
</svg>
