<svg width="50" height="50" viewBox="0 0 50 50" fill="none" xmlns="http://www.w3.org/2000/svg">
<path d="M46.0656 13.4752L30.4406 4.88147C30.2099 4.75454 29.9508 4.68799 29.6875 4.68799C29.4242 4.68799 29.1651 4.75454 28.9344 4.88147L13.3094 13.4752C13.0644 13.6101 12.8601 13.8083 12.7178 14.049C12.5755 14.2898 12.5005 14.5643 12.5005 14.844C12.5005 15.1236 12.5755 15.3982 12.7178 15.6389C12.8601 15.8797 13.0644 16.0778 13.3094 16.2127L28.125 24.3612V41.1096L23.3813 38.5002L21.875 41.2362L28.9344 45.119C29.165 45.2462 29.4241 45.3129 29.6875 45.3129C29.9509 45.3129 30.21 45.2462 30.4406 45.119L46.0656 36.5252C46.3107 36.3904 46.5151 36.1923 46.6575 35.9515C46.7998 35.7107 46.875 35.4362 46.875 35.1565V14.844C46.875 14.5643 46.7998 14.2897 46.6575 14.0489C46.5151 13.8082 46.3107 13.61 46.0656 13.4752ZM29.6875 8.0346L42.0703 14.844L29.6875 21.6533L17.3047 14.844L29.6875 8.0346ZM43.75 34.233L31.25 41.108V24.3596L43.75 17.4846V34.233Z" fill="white"/>
<path d="M15.625 25H3.125V21.875H15.625V25Z" fill="white"/>
<path d="M18.75 37.5H6.25V34.375H18.75V37.5Z" fill="white"/>
<path d="M21.875 31.25H9.375V28.125H21.875V31.25Z" fill="white"/>
</svg>
