<?xml version="1.0" encoding="UTF-8"?>
<svg xmlns="http://www.w3.org/2000/svg" xmlns:xlink="http://www.w3.org/1999/xlink" viewBox="0 0 75 75" width="75px" height="75px">
<g id="surface747614">
<path style=" stroke:none;fill-rule:nonzero;fill:rgb(100%,100%,100%);fill-opacity:1;" d="M 43.359375 2.953125 C 43.296875 2.964844 43.230469 2.984375 43.171875 3 L 17.25 3 C 14.378906 3 12 5.335938 12 8.203125 L 12 65.859375 C 12 69.242188 14.800781 72 18.1875 72 L 56.8125 72 C 60.199219 72 63 69.242188 63 65.859375 L 63 22.78125 C 63.039062 22.582031 63.039062 22.371094 63 22.171875 L 63 21.75 C 63.011719 21.351562 62.859375 20.960938 62.578125 20.671875 L 45.328125 3.421875 C 45.039062 3.140625 44.648438 2.988281 44.25 3 L 43.78125 3 C 43.648438 2.964844 43.5 2.945312 43.359375 2.953125 Z M 17.25 6 L 42 6 L 42 18.515625 C 42 21.53125 44.46875 24 47.484375 24 L 60 24 L 60 65.859375 C 60 67.609375 58.582031 69 56.8125 69 L 18.1875 69 C 16.417969 69 15 67.609375 15 65.859375 L 15 8.203125 C 15 6.96875 15.992188 6 17.25 6 Z M 45 7.40625 L 58.59375 21 L 47.484375 21 C 46.085938 21 45 19.914062 45 18.515625 Z M 25.5 36 L 25.5 39 L 49.5 39 L 49.5 36 Z M 25.5 42 L 25.5 45 L 49.5 45 L 49.5 42 Z M 25.5 48 L 25.5 51 L 49.5 51 L 49.5 48 Z M 25.5 54 L 25.5 57 L 39 57 L 39 54 Z M 25.5 54 "/>
</g>
</svg>
