<svg width="15" height="21" viewBox="0 0 15 21" fill="none" xmlns="http://www.w3.org/2000/svg">
<path d="M6.72917 20.5802C1.05333 11.9369 0 11.0505 0 7.87507C0 3.52541 3.3575 0 7.5 0C11.6425 0 15 3.52541 15 7.87507C15 11.0505 13.9467 11.9351 8.27083 20.5767C8.18464 20.707 8.06973 20.8136 7.93589 20.8873C7.80206 20.961 7.65325 20.9997 7.50212 21C7.35099 21.0003 7.20202 20.9624 7.06788 20.8893C6.93374 20.8162 6.8184 20.7101 6.73167 20.5802L6.73 20.5767L6.72917 20.5802ZM7.5 11.1564C8.3288 11.1564 9.12366 10.8106 9.70971 10.1953C10.2958 9.57993 10.625 8.74532 10.625 7.87507C10.625 7.00482 10.2958 6.17022 9.70971 5.55486C9.12366 4.9395 8.3288 4.59379 7.5 4.59379C6.6712 4.59379 5.87634 4.9395 5.29029 5.55486C4.70424 6.17022 4.375 7.00482 4.375 7.87507C4.375 8.74532 4.70424 9.57993 5.29029 10.1953C5.87634 10.8106 6.6712 11.1564 7.5 11.1564Z" fill="url(#paint0_linear_126_245)"/>
<defs>
<linearGradient id="paint0_linear_126_245" x1="15" y1="1.4921" x2="-2.6246" y2="5.08735" gradientUnits="userSpaceOnUse">
<stop stop-color="#FF7200"/>
<stop offset="1" stop-color="#FF4100"/>
</linearGradient>
</defs>
</svg>
