<svg width="10" height="14" viewBox="0 0 10 14" fill="none" xmlns="http://www.w3.org/2000/svg">
<path d="M4.48611 13.7201C0.702222 7.95791 0 7.36698 0 5.25005C0 2.35027 2.23833 0 5 0C7.76167 0 10 2.35027 10 5.25005C10 7.36698 9.29778 7.95674 5.51389 13.7178C5.45643 13.8047 5.37982 13.8757 5.2906 13.9249C5.20137 13.974 5.10216 13.9998 5.00141 14C4.90066 14.0002 4.80135 13.9749 4.71192 13.9262C4.62249 13.8774 4.5456 13.8068 4.48778 13.7201L4.48667 13.7178L4.48611 13.7201ZM5 7.43757C5.55253 7.43757 6.08244 7.2071 6.47314 6.79686C6.86384 6.38662 7.08333 5.83021 7.08333 5.25005C7.08333 4.66988 6.86384 4.11348 6.47314 3.70324C6.08244 3.293 5.55253 3.06253 5 3.06253C4.44747 3.06253 3.91756 3.293 3.52686 3.70324C3.13616 4.11348 2.91667 4.66988 2.91667 5.25005C2.91667 5.83021 3.13616 6.38662 3.52686 6.79686C3.91756 7.2071 4.44747 7.43757 5 7.43757Z" fill="url(#paint0_linear_154_4679)"/>
<defs>
<linearGradient id="paint0_linear_154_4679" x1="10" y1="0.994736" x2="-1.74973" y2="3.39157" gradientUnits="userSpaceOnUse">
<stop stop-color="#FF7200"/>
<stop offset="1" stop-color="#FF4100"/>
</linearGradient>
</defs>
</svg>
