<svg width="18" height="14" viewBox="0 0 18 14" fill="none" xmlns="http://www.w3.org/2000/svg">
<path d="M18 3.63246V11.3077C18 12.0217 17.7037 12.7065 17.1762 13.2114C16.6488 13.7163 15.9334 14 15.1875 14H2.8125C2.06658 14 1.35121 13.7163 0.823762 13.2114C0.296316 12.7065 0 12.0217 0 11.3077V3.63246L8.71425 8.54108C8.80082 8.58995 8.89949 8.61573 9 8.61573C9.10051 8.61573 9.19918 8.58995 9.28575 8.54108L18 3.63246ZM15.1875 3.33337e-08C15.8795 -0.000104156 16.5473 0.244038 17.0631 0.68572C17.5789 1.1274 17.9064 1.73561 17.9831 2.394L9 7.45231L0.0168751 2.394C0.0935531 1.73561 0.421114 1.1274 0.936894 0.68572C1.45267 0.244038 2.12046 -0.000104156 2.8125 3.33337e-08H15.1875Z" fill="url(#paint0_linear_126_614)"/>
<defs>
<linearGradient id="paint0_linear_126_614" x1="18" y1="0.994736" x2="-1.41236" y2="8.12262" gradientUnits="userSpaceOnUse">
<stop stop-color="#FF7200"/>
<stop offset="1" stop-color="#FF4100"/>
</linearGradient>
</defs>
</svg>
