<svg width="30" height="40" viewBox="0 0 30 40" fill="none" xmlns="http://www.w3.org/2000/svg">
<path d="M17.5 10.625V0H1.875C0.835938 0 0 0.835938 0 1.875V38.125C0 39.1641 0.835938 40 1.875 40H28.125C29.1641 40 30 39.1641 30 38.125V12.5H19.375C18.3438 12.5 17.5 11.6562 17.5 10.625ZM5 5.625C5 5.27969 5.27969 5 5.625 5H11.875C12.2203 5 12.5 5.27969 12.5 5.625V6.875C12.5 7.22031 12.2203 7.5 11.875 7.5H5.625C5.27969 7.5 5 7.22031 5 6.875V5.625ZM5 10.625C5 10.2797 5.27969 10 5.625 10H11.875C12.2203 10 12.5 10.2797 12.5 10.625V11.875C12.5 12.2203 12.2203 12.5 11.875 12.5H5.625C5.27969 12.5 5 12.2203 5 11.875V10.625ZM20.0633 30H23.75C24.4406 30 25 30.5594 25 31.25C25 31.9406 24.4406 32.5 23.75 32.5H20.0633C18.7781 32.5 17.6203 31.7859 17.0445 30.6359C16.8141 30.1734 16.4125 30.1266 16.25 30.1266C16.0875 30.1266 15.6859 30.1727 15.4672 30.6102L14.868 31.8086C14.7642 32.0162 14.6046 32.1908 14.4072 32.3128C14.2097 32.4348 13.9821 32.4994 13.75 32.4992C13.7203 32.4992 13.6914 32.4977 13.6609 32.4953C13.157 32.4602 12.7234 32.1242 12.5648 31.6445L11.25 27.7023L10.4211 30.193C9.96094 31.5727 8.67266 32.5 7.21797 32.5H6.25C5.55937 32.5 5 31.9406 5 31.25C5 30.5594 5.55937 30 6.25 30H7.21797C7.59531 30 7.92969 29.7594 8.04922 29.4016L9.47031 25.1328C9.72812 24.3664 10.4422 23.8508 11.25 23.8508C12.0578 23.8508 12.7719 24.3656 13.0289 25.1328L14.1133 28.3859C15.6578 27.1211 18.3359 27.6281 19.2695 29.4922C19.4273 29.8094 19.7352 30 20.0633 30ZM29.4531 8.20312L21.8047 0.546875C21.4531 0.195312 20.9766 0 20.4766 0H20V10H30V9.52344C30 9.03125 29.8047 8.55469 29.4531 8.20312Z" fill="url(#paint0_linear_251_3711)"/>
<defs>
<linearGradient id="paint0_linear_251_3711" x1="30" y1="2.8421" x2="-5.10545" y2="10.3613" gradientUnits="userSpaceOnUse">
<stop stop-color="#FF7200"/>
<stop offset="1" stop-color="#FF4100"/>
</linearGradient>
</defs>
</svg>
