<svg width="46" height="32" viewBox="0 0 46 32" fill="none" xmlns="http://www.w3.org/2000/svg">
<path d="M0 29.7143C0 30.9764 1.02997 32 2.3 32H43.7C44.97 32 46 30.9764 46 29.7143V6.85714H0V29.7143ZM32.2 14.8571C32.2 14.2257 32.7146 13.7143 33.35 13.7143H40.25C40.8854 13.7143 41.4 14.2257 41.4 14.8571V17.1429C41.4 17.7743 40.8854 18.2857 40.25 18.2857H33.35C32.7146 18.2857 32.2 17.7743 32.2 17.1429V14.8571ZM32.2 23.4286C32.2 23.1129 32.4573 22.8571 32.775 22.8571H40.825C41.1427 22.8571 41.4 23.1129 41.4 23.4286V24.5714C41.4 24.8871 41.1427 25.1429 40.825 25.1429H32.775C32.4573 25.1429 32.2 24.8871 32.2 24.5714V23.4286ZM4.6 16.5714C4.6 16.2557 4.85731 16 5.175 16H27.025C27.3427 16 27.6 16.2557 27.6 16.5714V17.7143C27.6 18.03 27.3427 18.2857 27.025 18.2857H5.175C4.85731 18.2857 4.6 18.03 4.6 17.7143V16.5714ZM4.6 23.4286C4.6 23.1129 4.85731 22.8571 5.175 22.8571H17.825C18.1427 22.8571 18.4 23.1129 18.4 23.4286V24.5714C18.4 24.8871 18.1427 25.1429 17.825 25.1429H5.175C4.85731 25.1429 4.6 24.8871 4.6 24.5714V23.4286ZM44.85 0H1.15C0.514625 0 0 0.511429 0 1.14286V4.57143H46V1.14286C46 0.511429 45.4854 0 44.85 0Z" fill="url(#paint0_linear_251_3705)"/>
<defs>
<linearGradient id="paint0_linear_251_3705" x1="46" y1="2.27368" x2="-2.17813" y2="22.0523" gradientUnits="userSpaceOnUse">
<stop stop-color="#FF7200"/>
<stop offset="1" stop-color="#FF4100"/>
</linearGradient>
</defs>
</svg>
