<svg width="46" height="32" viewBox="0 0 46 32" fill="none" xmlns="http://www.w3.org/2000/svg">
<path d="M44.6452 1.60429C41.8572 0.442143 39.067 8.59114e-08 36.2783 8.59114e-08C27.4256 -0.0007142 18.5736 4.45286 9.72094 4.45286C7.50076 4.45286 5.28201 4.17286 3.06183 3.47286C2.81242 3.39429 2.5623 3.35714 2.31793 3.35714C1.08098 3.35714 0 4.30857 0 5.62929V28.2907C0 29.1929 0.519648 30.0479 1.3541 30.395C4.14209 31.5579 6.93224 32 9.72094 32C18.5736 32 27.4264 27.5464 36.2791 27.5464C38.4992 27.5464 40.718 27.8264 42.9382 28.5264C43.1876 28.605 43.4377 28.6421 43.6821 28.6421C44.919 28.6421 46 27.6907 46 26.37V3.70929C45.9993 2.80643 45.4796 1.95214 44.6452 1.60429ZM22.9996 22.8571C19.8235 22.8571 17.2497 19.7864 17.2497 16C17.2497 12.2129 19.8243 9.14286 22.9996 9.14286C26.175 9.14286 28.7495 12.2129 28.7495 16C28.7495 19.7879 26.1743 22.8571 22.9996 22.8571Z" fill="url(#paint0_linear_251_3704)"/>
<defs>
<linearGradient id="paint0_linear_251_3704" x1="46" y1="2.27368" x2="-2.17813" y2="22.0523" gradientUnits="userSpaceOnUse">
<stop stop-color="#FF7200"/>
<stop offset="1" stop-color="#FF4100"/>
</linearGradient>
</defs>
</svg>
