<svg width="13" height="13" viewBox="0 0 13 13" fill="none" xmlns="http://www.w3.org/2000/svg">
<path d="M2.62515 0.000886274C2.8473 -0.0122146 3.04811 0.120573 3.20034 0.356262L4.6745 3.15193C4.82972 3.48321 4.74152 3.83792 4.50998 4.07462L3.83476 4.74984C3.79309 4.80695 3.76567 4.87127 3.765 4.942C4.02394 5.94433 4.80941 6.8689 5.50244 7.50471C6.19543 8.14053 6.94027 9.00135 7.90715 9.20529C8.02666 9.23862 8.17307 9.25058 8.25859 9.17109L9.04305 8.37214C9.31384 8.16689 9.70557 8.06742 9.99468 8.23525H10.0078L12.6679 9.80552C13.0584 10.0503 13.0988 10.5234 12.8193 10.8111L10.9871 12.6288C10.7166 12.9063 10.3571 12.9996 10.0079 13C8.46332 12.9537 7.0039 12.1956 5.80518 11.4166C3.83755 9.98514 2.03268 8.20973 0.899587 6.06477C0.465017 5.16533 -0.0454811 4.0177 0.00323784 3.01377C0.00758678 2.63609 0.109768 2.26609 0.375737 2.02266L2.20792 0.190462C2.35064 0.0690144 2.49184 0.00875755 2.62515 0.000886274Z" fill="white"/>
</svg>
