<svg width="20" height="20" viewBox="0 0 20 20" fill="none" xmlns="http://www.w3.org/2000/svg">
<path d="M4.03869 0.0013635C4.38047 -0.0187916 4.6894 0.185497 4.9236 0.548096L7.19155 4.84913C7.43034 5.35878 7.29464 5.90449 6.93843 6.26864L5.89964 7.30744C5.83552 7.39531 5.79333 7.49426 5.79231 7.60308C6.19068 9.14513 7.3991 10.5675 8.46529 11.5457C9.53143 12.5239 10.6773 13.8482 12.1649 14.162C12.3487 14.2133 12.574 14.2317 12.7055 14.1094L13.9124 12.8802C14.329 12.5644 14.9316 12.4114 15.3764 12.6696H15.3967L19.4891 15.0854C20.0898 15.4619 20.152 16.1898 19.7219 16.6325L16.9033 19.429C16.487 19.8558 15.934 19.9994 15.3967 20C13.0205 19.9288 10.7752 18.7625 8.93104 17.564C5.90392 15.3617 3.12721 12.6304 1.38398 9.33042C0.71541 7.94666 -0.0699709 6.18108 0.0049813 4.63657C0.011672 4.05553 0.168874 3.48629 0.578057 3.11178L3.3968 0.293019C3.61637 0.106176 3.8336 0.0134732 4.03869 0.0013635Z" fill="url(#paint0_linear_126_608)"/>
<defs>
<linearGradient id="paint0_linear_126_608" x1="20" y1="1.42105" x2="-2.63151" y2="7.88431" gradientUnits="userSpaceOnUse">
<stop stop-color="#FF7200"/>
<stop offset="1" stop-color="#FF4100"/>
</linearGradient>
</defs>
</svg>
