<?xml version="1.0" encoding="UTF-8"?>
<svg xmlns="http://www.w3.org/2000/svg" xmlns:xlink="http://www.w3.org/1999/xlink" viewBox="0 0 75 75" width="75px" height="75px">
<g id="surface787972">
<path style=" stroke:none;fill-rule:nonzero;fill:rgb(100%,100%,100%);fill-opacity:1;" d="M 18.109375 9.375 C 10.710938 9.375 4.6875 15.472656 4.6875 22.90625 L 4.6875 60.9375 L 37.5 60.9375 L 37.5 70.3125 L 42.1875 70.3125 L 42.1875 60.9375 L 70.3125 60.9375 L 70.3125 22.90625 C 70.332031 15.472656 64.289062 9.375 56.890625 9.375 Z M 18.109375 14.0625 L 19.390625 14.0625 C 24.242188 14.0625 28.125 17.980469 28.125 22.90625 L 28.125 56.25 L 9.375 56.25 L 9.375 22.886719 C 9.394531 17.980469 13.273438 14.0625 18.109375 14.0625 Z M 29.445312 14.0625 L 56.890625 14.0625 C 61.726562 14.0625 65.625 17.980469 65.625 22.90625 L 65.625 56.25 L 32.8125 56.25 L 32.8125 22.90625 C 32.8125 19.519531 31.511719 16.441406 29.445312 14.0625 Z M 37.5 23.4375 L 37.5 28.125 L 56.25 28.125 L 56.25 32.8125 L 60.9375 32.8125 L 60.9375 23.4375 Z M 14.0625 28.125 L 14.0625 32.8125 L 23.4375 32.8125 L 23.4375 28.125 Z M 14.0625 28.125 "/>
</g>
</svg>
