<?xml version="1.0" encoding="UTF-8"?>
<svg xmlns="http://www.w3.org/2000/svg" xmlns:xlink="http://www.w3.org/1999/xlink" viewBox="0 0 75 75" width="75px" height="75px">
<g id="surface779222">
<path style=" stroke:none;fill-rule:nonzero;fill:rgb(100%,100%,100%);fill-opacity:1;" d="M 35.15625 4.6875 C 18.367188 4.6875 4.6875 18.367188 4.6875 35.15625 C 4.6875 51.945312 18.367188 65.625 35.15625 65.625 C 51.945312 65.625 65.625 51.945312 65.625 35.15625 C 65.625 18.367188 51.945312 4.6875 35.15625 4.6875 Z M 35.15625 9.375 C 49.421875 9.375 60.9375 20.890625 60.9375 35.15625 C 60.9375 49.421875 49.421875 60.9375 35.15625 60.9375 C 20.890625 60.9375 9.375 49.421875 9.375 35.15625 C 9.375 20.890625 20.890625 9.375 35.15625 9.375 Z M 51.5625 18.75 L 30.46875 30.46875 L 18.75 51.5625 L 39.84375 39.84375 Z M 35.15625 32.8125 C 36.457031 32.8125 37.5 33.855469 37.5 35.15625 C 37.5 36.457031 36.457031 37.5 35.15625 37.5 C 33.855469 37.5 32.8125 36.457031 32.8125 35.15625 C 32.8125 33.855469 33.855469 32.8125 35.15625 32.8125 Z M 35.15625 32.8125 "/>
</g>
</svg>
