<svg display="none" xmlns="http://www.w3.org/2000/svg">
    <symbol id="mail" viewBox="0 0 18 14">
        <g>
        <path d="M18 3.63246V11.3077C18 12.0217 17.7037 12.7065 17.1762 13.2114C16.6488 13.7163 15.9334 14 15.1875 14H2.8125C2.06658 14 1.35121 13.7163 0.823762 13.2114C0.296316 12.7065 0 12.0217 0 11.3077V3.63246L8.71425 8.54108C8.80082 8.58995 8.89949 8.61573 9 8.61573C9.10051 8.61573 9.19918 8.58995 9.28575 8.54108L18 3.63246ZM15.1875 3.33337e-08C15.8795 -0.000104156 16.5473 0.244038 17.0631 0.68572C17.5789 1.1274 17.9064 1.73561 17.9831 2.394L9 7.45231L0.0168751 2.394C0.0935531 1.73561 0.421114 1.1274 0.936894 0.68572C1.45267 0.244038 2.12046 -0.000104156 2.8125 3.33337e-08H15.1875Z" fill="url(#paint0_linear_126_614)"/>
        </g>
    </symbol>
    <symbol id="phone" viewBox="0 0 20 20">
        <g>
        <path d="M4.03869 0.0013635C4.38047 -0.0187916 4.6894 0.185497 4.9236 0.548096L7.19155 4.84913C7.43034 5.35878 7.29464 5.90449 6.93843 6.26864L5.89964 7.30744C5.83552 7.39531 5.79333 7.49426 5.79231 7.60308C6.19068 9.14513 7.3991 10.5675 8.46529 11.5457C9.53143 12.5239 10.6773 13.8482 12.1649 14.162C12.3487 14.2133 12.574 14.2317 12.7055 14.1094L13.9124 12.8802C14.329 12.5644 14.9316 12.4114 15.3764 12.6696H15.3967L19.4891 15.0854C20.0898 15.4619 20.152 16.1898 19.7219 16.6325L16.9033 19.429C16.487 19.8558 15.934 19.9994 15.3967 20C13.0205 19.9288 10.7752 18.7625 8.93104 17.564C5.90392 15.3617 3.12721 12.6304 1.38398 9.33042C0.71541 7.94666 -0.0699709 6.18108 0.0049813 4.63657C0.011672 4.05553 0.168874 3.48629 0.578057 3.11178L3.3968 0.293019C3.61637 0.106176 3.8336 0.0134732 4.03869 0.0013635Z" fill="url(#paint0_linear_126_608)"/>
        </g>
    </symbol>
    <symbol id="geo" viewBox="0 0 15 21">
        <g>
        <path d="M6.72917 20.5802C1.05333 11.9369 0 11.0505 0 7.87507C0 3.52541 3.3575 0 7.5 0C11.6425 0 15 3.52541 15 7.87507C15 11.0505 13.9467 11.9351 8.27083 20.5767C8.18464 20.707 8.06973 20.8136 7.93589 20.8873C7.80206 20.961 7.65325 20.9997 7.50212 21C7.35099 21.0003 7.20202 20.9624 7.06788 20.8893C6.93374 20.8162 6.8184 20.7101 6.73167 20.5802L6.73 20.5767L6.72917 20.5802ZM7.5 11.1564C8.3288 11.1564 9.12366 10.8106 9.70971 10.1953C10.2958 9.57993 10.625 8.74532 10.625 7.87507C10.625 7.00482 10.2958 6.17022 9.70971 5.55486C9.12366 4.9395 8.3288 4.59379 7.5 4.59379C6.6712 4.59379 5.87634 4.9395 5.29029 5.55486C4.70424 6.17022 4.375 7.00482 4.375 7.87507C4.375 8.74532 4.70424 9.57993 5.29029 10.1953C5.87634 10.8106 6.6712 11.1564 7.5 11.1564Z" fill="url(#paint0_linear_126_245)"/>
        </g>
    </symbol>
    <symbol id="cube" viewBox="0 0 75 75">
        <g>
        <path d="M69.7756 20.1944L46.1389 7.29052C45.7899 7.09994 45.398 7 44.9996 7C44.6013 7 44.2094 7.09994 43.8603 7.29052L20.2236 20.1944C19.8531 20.3969 19.544 20.6945 19.3288 21.056C19.1135 21.4175 19 21.8297 19 22.2496C19 22.6696 19.1135 23.0818 19.3288 23.4433C19.544 23.8048 19.8531 24.1023 20.2236 24.3049L42.636 36.5401V61.6886L35.4599 57.7705L33.1813 61.8786L43.8603 67.7088C44.2092 67.8998 44.6012 68 44.9996 68C45.3981 68 45.79 67.8998 46.1389 67.7088L69.7756 54.8049C70.1464 54.6025 70.4555 54.305 70.6709 53.9435C70.8863 53.582 70.9999 53.1697 71 52.7497V22.2496C70.9999 21.8296 70.8863 21.4174 70.6709 21.0559C70.4555 20.6943 70.1464 20.3968 69.7756 20.1944ZM44.9996 12.0251L63.7317 22.2496L44.9996 32.4742L26.2675 22.2496L44.9996 12.0251ZM66.2727 51.3631L47.3633 61.6862V36.5377L66.2727 26.2146V51.3631Z" fill="white"/>
        <path d="M24 38H5V33H24V38Z" fill="white"/>
        <path d="M28 57H9V52H28V57Z" fill="white"/>
        <path d="M33 47H14V42H33V47Z" fill="white"/>
        </g>
    </symbol>
</svg>