<svg display="none" xmlns="http://www.w3.org/2000/svg">
    <symbol id="mail" viewBox="0 0 18 14">
        <g>
        <path d="M18 3.63246V11.3077C18 12.0217 17.7037 12.7065 17.1762 13.2114C16.6488 13.7163 15.9334 14 15.1875 14H2.8125C2.06658 14 1.35121 13.7163 0.823762 13.2114C0.296316 12.7065 0 12.0217 0 11.3077V3.63246L8.71425 8.54108C8.80082 8.58995 8.89949 8.61573 9 8.61573C9.10051 8.61573 9.19918 8.58995 9.28575 8.54108L18 3.63246ZM15.1875 3.33337e-08C15.8795 -0.000104156 16.5473 0.244038 17.0631 0.68572C17.5789 1.1274 17.9064 1.73561 17.9831 2.394L9 7.45231L0.0168751 2.394C0.0935531 1.73561 0.421114 1.1274 0.936894 0.68572C1.45267 0.244038 2.12046 -0.000104156 2.8125 3.33337e-08H15.1875Z" fill="#FF7200"/>
        </g>
    </symbol>
    <symbol id="phone" viewBox="0 0 20 20">
        <g>
        <path d="M4.03869 0.0013635C4.38047 -0.0187916 4.6894 0.185497 4.9236 0.548096L7.19155 4.84913C7.43034 5.35878 7.29464 5.90449 6.93843 6.26864L5.89964 7.30744C5.83552 7.39531 5.79333 7.49426 5.79231 7.60308C6.19068 9.14513 7.3991 10.5675 8.46529 11.5457C9.53143 12.5239 10.6773 13.8482 12.1649 14.162C12.3487 14.2133 12.574 14.2317 12.7055 14.1094L13.9124 12.8802C14.329 12.5644 14.9316 12.4114 15.3764 12.6696H15.3967L19.4891 15.0854C20.0898 15.4619 20.152 16.1898 19.7219 16.6325L16.9033 19.429C16.487 19.8558 15.934 19.9994 15.3967 20C13.0205 19.9288 10.7752 18.7625 8.93104 17.564C5.90392 15.3617 3.12721 12.6304 1.38398 9.33042C0.71541 7.94666 -0.0699709 6.18108 0.0049813 4.63657C0.011672 4.05553 0.168874 3.48629 0.578057 3.11178L3.3968 0.293019C3.61637 0.106176 3.8336 0.0134732 4.03869 0.0013635Z" fill="#FF7200"/>
        </g>
    </symbol>
    <symbol id="geo" viewBox="0 0 15 21">
        <g>
        <path d="M6.72917 20.5802C1.05333 11.9369 0 11.0505 0 7.87507C0 3.52541 3.3575 0 7.5 0C11.6425 0 15 3.52541 15 7.87507C15 11.0505 13.9467 11.9351 8.27083 20.5767C8.18464 20.707 8.06973 20.8136 7.93589 20.8873C7.80206 20.961 7.65325 20.9997 7.50212 21C7.35099 21.0003 7.20202 20.9624 7.06788 20.8893C6.93374 20.8162 6.8184 20.7101 6.73167 20.5802L6.73 20.5767L6.72917 20.5802ZM7.5 11.1564C8.3288 11.1564 9.12366 10.8106 9.70971 10.1953C10.2958 9.57993 10.625 8.74532 10.625 7.87507C10.625 7.00482 10.2958 6.17022 9.70971 5.55486C9.12366 4.9395 8.3288 4.59379 7.5 4.59379C6.6712 4.59379 5.87634 4.9395 5.29029 5.55486C4.70424 6.17022 4.375 7.00482 4.375 7.87507C4.375 8.74532 4.70424 9.57993 5.29029 10.1953C5.87634 10.8106 6.6712 11.1564 7.5 11.1564Z" fill="#FF7200"/>
        </g>
    </symbol>
    <symbol id="cube" viewBox="0 0 75 75">
        <g>
        <path d="M69.7756 20.1944L46.1389 7.29052C45.7899 7.09994 45.398 7 44.9996 7C44.6013 7 44.2094 7.09994 43.8603 7.29052L20.2236 20.1944C19.8531 20.3969 19.544 20.6945 19.3288 21.056C19.1135 21.4175 19 21.8297 19 22.2496C19 22.6696 19.1135 23.0818 19.3288 23.4433C19.544 23.8048 19.8531 24.1023 20.2236 24.3049L42.636 36.5401V61.6886L35.4599 57.7705L33.1813 61.8786L43.8603 67.7088C44.2092 67.8998 44.6012 68 44.9996 68C45.3981 68 45.79 67.8998 46.1389 67.7088L69.7756 54.8049C70.1464 54.6025 70.4555 54.305 70.6709 53.9435C70.8863 53.582 70.9999 53.1697 71 52.7497V22.2496C70.9999 21.8296 70.8863 21.4174 70.6709 21.0559C70.4555 20.6943 70.1464 20.3968 69.7756 20.1944ZM44.9996 12.0251L63.7317 22.2496L44.9996 32.4742L26.2675 22.2496L44.9996 12.0251ZM66.2727 51.3631L47.3633 61.6862V36.5377L66.2727 26.2146V51.3631Z"/>
        <path d="M24 38H5V33H24V38Z"/>
        <path d="M28 57H9V52H28V57Z"/>
        <path d="M33 47H14V42H33V47Z"/>
        </g>
    </symbol>
    <symbol id="menu" viewBox="0 0 27 18">
        <rect width="27" height="3"/>
        <rect y="8" width="27" height="3"/>
        <rect y="15" width="27" height="3"/>
    </symbol>
    <symbol id="saf" viewBox="0 0 75 75">
        <g>
        <path style=" stroke:none;fill-rule:nonzero;fill:rgb(100%,100%,100%);fill-opacity:1;" d="M 35.15625 4.6875 C 18.367188 4.6875 4.6875 18.367188 4.6875 35.15625 C 4.6875 51.945312 18.367188 65.625 35.15625 65.625 C 51.945312 65.625 65.625 51.945312 65.625 35.15625 C 65.625 18.367188 51.945312 4.6875 35.15625 4.6875 Z M 35.15625 9.375 C 49.421875 9.375 60.9375 20.890625 60.9375 35.15625 C 60.9375 49.421875 49.421875 60.9375 35.15625 60.9375 C 20.890625 60.9375 9.375 49.421875 9.375 35.15625 C 9.375 20.890625 20.890625 9.375 35.15625 9.375 Z M 51.5625 18.75 L 30.46875 30.46875 L 18.75 51.5625 L 39.84375 39.84375 Z M 35.15625 32.8125 C 36.457031 32.8125 37.5 33.855469 37.5 35.15625 C 37.5 36.457031 36.457031 37.5 35.15625 37.5 C 33.855469 37.5 32.8125 36.457031 32.8125 35.15625 C 32.8125 33.855469 33.855469 32.8125 35.15625 32.8125 Z M 35.15625 32.8125 "/>
        </g>
    </symbol>
    <symbol id="post" viewBox="0 0 75 75">
        <g>
        <path style=" stroke:none;fill-rule:nonzero;fill:rgb(100%,100%,100%);fill-opacity:1;" d="M 18.109375 9.375 C 10.710938 9.375 4.6875 15.472656 4.6875 22.90625 L 4.6875 60.9375 L 37.5 60.9375 L 37.5 70.3125 L 42.1875 70.3125 L 42.1875 60.9375 L 70.3125 60.9375 L 70.3125 22.90625 C 70.332031 15.472656 64.289062 9.375 56.890625 9.375 Z M 18.109375 14.0625 L 19.390625 14.0625 C 24.242188 14.0625 28.125 17.980469 28.125 22.90625 L 28.125 56.25 L 9.375 56.25 L 9.375 22.886719 C 9.394531 17.980469 13.273438 14.0625 18.109375 14.0625 Z M 29.445312 14.0625 L 56.890625 14.0625 C 61.726562 14.0625 65.625 17.980469 65.625 22.90625 L 65.625 56.25 L 32.8125 56.25 L 32.8125 22.90625 C 32.8125 19.519531 31.511719 16.441406 29.445312 14.0625 Z M 37.5 23.4375 L 37.5 28.125 L 56.25 28.125 L 56.25 32.8125 L 60.9375 32.8125 L 60.9375 23.4375 Z M 14.0625 28.125 L 14.0625 32.8125 L 23.4375 32.8125 L 23.4375 28.125 Z M 14.0625 28.125 "/>
        </g>
    </symbol>
    <symbol id="docs" viewBox="0 0 75 75">
        <g>
        <path style=" stroke:none;fill-rule:nonzero;fill:rgb(100%,100%,100%);fill-opacity:1;" d="M 43.359375 2.953125 C 43.296875 2.964844 43.230469 2.984375 43.171875 3 L 17.25 3 C 14.378906 3 12 5.335938 12 8.203125 L 12 65.859375 C 12 69.242188 14.800781 72 18.1875 72 L 56.8125 72 C 60.199219 72 63 69.242188 63 65.859375 L 63 22.78125 C 63.039062 22.582031 63.039062 22.371094 63 22.171875 L 63 21.75 C 63.011719 21.351562 62.859375 20.960938 62.578125 20.671875 L 45.328125 3.421875 C 45.039062 3.140625 44.648438 2.988281 44.25 3 L 43.78125 3 C 43.648438 2.964844 43.5 2.945312 43.359375 2.953125 Z M 17.25 6 L 42 6 L 42 18.515625 C 42 21.53125 44.46875 24 47.484375 24 L 60 24 L 60 65.859375 C 60 67.609375 58.582031 69 56.8125 69 L 18.1875 69 C 16.417969 69 15 67.609375 15 65.859375 L 15 8.203125 C 15 6.96875 15.992188 6 17.25 6 Z M 45 7.40625 L 58.59375 21 L 47.484375 21 C 46.085938 21 45 19.914062 45 18.515625 Z M 25.5 36 L 25.5 39 L 49.5 39 L 49.5 36 Z M 25.5 42 L 25.5 45 L 49.5 45 L 49.5 42 Z M 25.5 48 L 25.5 51 L 49.5 51 L 49.5 48 Z M 25.5 54 L 25.5 57 L 39 57 L 39 54 Z M 25.5 54 "/>
        </g>
    </symbol>
    <symbol id="buttonleftcircle" viewBox="0 0 60 60" fill="none">
        <g>
        <circle r="30" transform="matrix(-1 0 0 1 30 30)"/>
        </g>
    </symbol>
    <symbol id="buttonleftrow" viewBox="0 0 11 26" fill="none">
        <g>
        <path d="M10 24.5L7 20.6667L1 13L7 5.33333L10 1.5" stroke-width="1.5" stroke-linecap="round" stroke-linejoin="round"/>
        </g>
    </symbol>
</svg>