<svg width="365" height="157" viewBox="0 0 365 157" fill="none" xmlns="http://www.w3.org/2000/svg">
<path d="M72.033 156.432V117.984H0.105024V105.024L76.785 5.66399H86.721V104.592H105.729V117.984H86.721V156.432H72.033ZM15.657 104.592H73.545V28.776L15.657 104.592ZM237.683 65.712C237.683 78.384 235.307 89.688 230.555 99.624C225.947 109.416 219.539 117.12 211.331 122.736C203.123 128.352 193.835 131.16 183.467 131.16C173.099 131.16 163.811 128.352 155.603 122.736C147.539 117.12 141.131 109.416 136.379 99.624C131.627 89.688 129.251 78.384 129.251 65.712C129.251 53.04 131.627 41.808 136.379 32.016C141.131 22.08 147.539 14.304 155.603 8.68799C163.811 2.928 173.099 0.0479994 183.467 0.0479994C193.835 0.0479994 203.123 2.928 211.331 8.68799C219.539 14.304 225.947 22.08 230.555 32.016C235.307 41.808 237.683 53.04 237.683 65.712ZM222.779 65.712C222.779 55.488 221.123 46.488 217.811 38.712C214.499 30.936 209.891 24.888 203.987 20.568C198.083 16.104 191.243 13.872 183.467 13.872C175.691 13.872 168.851 16.104 162.947 20.568C157.043 24.888 152.363 30.936 148.907 38.712C145.595 46.488 143.939 55.488 143.939 65.712C143.939 75.936 145.595 84.936 148.907 92.712C152.363 100.488 157.043 106.536 162.947 110.856C168.851 115.176 175.691 117.336 183.467 117.336C191.243 117.336 198.083 115.176 203.987 110.856C209.891 106.392 214.499 100.344 217.811 92.712C221.123 84.936 222.779 75.936 222.779 65.712ZM330.845 156.432V117.984H258.917V105.024L335.597 5.66399H345.533V104.592H364.541V117.984H345.533V156.432H330.845ZM274.469 104.592H332.357V28.776L274.469 104.592Z" fill="#E6E6E6"/>
</svg>
