<svg width="120" height="84" viewBox="0 0 120 84" fill="none" xmlns="http://www.w3.org/2000/svg">
<path d="M0 78C0 81.3131 2.68687 84 6 84H114C117.313 84 120 81.3131 120 78V18H0V78ZM84 39C84 37.3425 85.3425 36 87 36H105C106.658 36 108 37.3425 108 39V45C108 46.6575 106.658 48 105 48H87C85.3425 48 84 46.6575 84 45V39ZM84 61.5C84 60.6712 84.6712 60 85.5 60H106.5C107.329 60 108 60.6712 108 61.5V64.5C108 65.3288 107.329 66 106.5 66H85.5C84.6712 66 84 65.3288 84 64.5V61.5ZM12 43.5C12 42.6712 12.6713 42 13.5 42H70.5C71.3288 42 72 42.6712 72 43.5V46.5C72 47.3288 71.3288 48 70.5 48H13.5C12.6713 48 12 47.3288 12 46.5V43.5ZM12 61.5C12 60.6712 12.6713 60 13.5 60H46.5C47.3288 60 48 60.6712 48 61.5V64.5C48 65.3288 47.3288 66 46.5 66H13.5C12.6713 66 12 65.3288 12 64.5V61.5ZM117 0H3C1.3425 0 0 1.3425 0 3V12H120V3C120 1.3425 118.658 0 117 0Z" fill="url(#paint0_linear_215_3627)"/>
<defs>
<linearGradient id="paint0_linear_215_3627" x1="120" y1="5.96842" x2="-5.90696" y2="57.336" gradientUnits="userSpaceOnUse">
<stop stop-color="#FF7200"/>
<stop offset="1" stop-color="#FF4100"/>
</linearGradient>
</defs>
</svg>
