<svg width="12" height="9" viewBox="0 0 12 9" fill="none" xmlns="http://www.w3.org/2000/svg">
<path d="M12 2.33515V7.26923C12 7.72826 11.8025 8.16849 11.4508 8.49307C11.0992 8.81765 10.6223 9 10.125 9H1.875C1.37772 9 0.900805 8.81765 0.549175 8.49307C0.197544 8.16849 0 7.72826 0 7.26923V2.33515L5.8095 5.49069C5.86722 5.52211 5.933 5.53868 6 5.53868C6.067 5.53868 6.13278 5.52211 6.1905 5.49069L12 2.33515ZM10.125 2.14288e-08C10.5864 -6.69572e-05 11.0316 0.156881 11.3754 0.44082C11.7193 0.724758 11.9376 1.11575 11.9888 1.539L6 4.79077L0.0112501 1.539C0.0623687 1.11575 0.280743 0.724758 0.624596 0.44082C0.968449 0.156881 1.41364 -6.69572e-05 1.875 2.14288e-08H10.125Z" fill="url(#paint0_linear_96_201)"/>
<defs>
<linearGradient id="paint0_linear_96_201" x1="12" y1="0.639473" x2="-0.826603" y2="5.52361" gradientUnits="userSpaceOnUse">
<stop stop-color="#FF7200"/>
<stop offset="1" stop-color="#FF4100"/>
</linearGradient>
</defs>
</svg>
