<svg width="49" height="49" viewBox="0 0 49 49" fill="none" xmlns="http://www.w3.org/2000/svg">
<path d="M46.5 13.5V48H43.5M46.5 13.5H48V10.5L28.5 1L9.5 10.2564M46.5 13.5H9.5M1 37V48H13.5M1 37H13.5M1 37V26H5.5M26 48V37H18.5M26 48H13.5M26 48H31M13.5 48V37M13.5 37V26H9M13.5 37H18.5M43.5 48H31M43.5 48V38.5M31 48V38.5M31 38.5H43.5M31 38.5V29M43.5 38.5V29M31 29H43.5M31 29V27.5M43.5 29V19.5H31V27.5M31 27.5H18.5M31 27.5V18H18.5V27.5M18.5 27.5V37M9.5 10.2564V13.5M9.5 10.2564V4.5M9.5 13.5V19.5H12.5L8 26M8 26H5.5M8 26H9M6.5 26L2 19.5H5V4.5M5.5 26V29H9V26M5.5 37V40H9V37M18 37V40H21.5V37M35.5 38.5V41.5H39V38.5M35.5 29V32H39V29M35.5 19.5V22.5H39V19.5M23 18V21H26.5V18M23 27.5V30.5H26.5V27.5" stroke="#2671B0" stroke-linecap="round" stroke-linejoin="round"/>
</svg>
