<svg width="65" height="65" viewBox="0 0 65 65" fill="none" xmlns="http://www.w3.org/2000/svg">
<path d="M49.2285 1L49.5385 0.607653C49.4073 0.504041 49.233 0.47282 49.0741 0.524453L49.2285 1ZM21.8222 25.1927L21.4846 24.8239L21.8222 25.1927ZM21.8602 29.5213L22.1443 29.1098L21.8602 29.5213ZM23.7387 30.8179L24.0227 30.4064L24.0227 30.4064L23.7387 30.8179ZM27.2368 24.2538C27.4543 24.424 27.7686 24.3856 27.9387 24.1681C28.1089 23.9506 28.0705 23.6364 27.8531 23.4662L27.2368 24.2538ZM27.2802 30.8195L26.9996 30.4057L26.9996 30.4057L27.2802 30.8195ZM1.5 31.96C1.5 31.6839 1.27614 31.46 1 31.46C0.723858 31.46 0.5 31.6839 0.5 31.96H1.5ZM58.1292 31.96C58.1292 31.6839 57.9054 31.46 57.6292 31.46C57.3531 31.46 57.1292 31.6839 57.1292 31.96H58.1292ZM53.0324 58.7208L52.8008 59.1639L53.0324 58.7208ZM13.3409 60.4509L13.823 60.5837L13.3409 60.4509ZM5.59682 58.7208L5.82845 59.1639H5.82845L5.59682 58.7208ZM5.80899 28.36V29.8H6.80899V28.36H5.80899ZM42.9101 29.8V28.36H41.9101V29.8H42.9101ZM42.0562 28.5C41.9675 28.5 41.9101 28.4293 41.9101 28.36H42.9101C42.9101 27.8931 42.5358 27.5 42.0562 27.5V28.5ZM42.0562 30.66C42.5358 30.66 42.9101 30.2669 42.9101 29.8H41.9101C41.9101 29.7307 41.9675 29.66 42.0562 29.66V30.66ZM6.66292 29.66C6.75157 29.66 6.80899 29.7307 6.80899 29.8H5.80899C5.80899 30.2669 6.18333 30.66 6.66292 30.66V29.66ZM43.618 27.64V26.2H42.618V27.64H43.618ZM42.764 26.34C42.6754 26.34 42.618 26.2693 42.618 26.2H43.618C43.618 25.7331 43.2436 25.34 42.764 25.34V26.34ZM42.764 28.5C43.2436 28.5 43.618 28.1069 43.618 27.64H42.618C42.618 27.5707 42.6754 27.5 42.764 27.5V28.5ZM5.80899 24.4V25.84H6.80899V24.4H5.80899ZM42.9101 25.84V24.4H41.9101V25.84H42.9101ZM6.66292 23.54C6.18333 23.54 5.80899 23.9331 5.80899 24.4H6.80899C6.80899 24.4693 6.75157 24.54 6.66292 24.54V23.54ZM42.0562 24.54C41.9675 24.54 41.9101 24.4693 41.9101 24.4H42.9101C42.9101 23.9331 42.5358 23.54 42.0562 23.54V24.54ZM42.0562 26.7C42.5358 26.7 42.9101 26.3069 42.9101 25.84H41.9101C41.9101 25.7707 41.9675 25.7 42.0562 25.7V26.7ZM6.66292 25.7C6.75157 25.7 6.80899 25.7707 6.80899 25.84H5.80899C5.80899 26.3069 6.18333 26.7 6.66292 26.7V25.7ZM5.10112 26.56V28H6.10112V26.56H5.10112ZM42.2022 28V26.56H41.2022V28H42.2022ZM5.95506 25.7C5.47546 25.7 5.10112 26.0931 5.10112 26.56H6.10112C6.10112 26.6293 6.04371 26.7 5.95506 26.7V25.7ZM41.3483 26.7C41.2597 26.7 41.2022 26.6293 41.2022 26.56H42.2022C42.2022 26.0931 41.8279 25.7 41.3483 25.7V26.7ZM41.3483 28.86C41.8279 28.86 42.2022 28.4669 42.2022 28H41.2022C41.2022 27.9307 41.2597 27.86 41.3483 27.86V28.86ZM5.95506 27.86C6.04371 27.86 6.10112 27.9307 6.10112 28H5.10112C5.10112 28.4669 5.47546 28.86 5.95506 28.86V27.86ZM17.8427 10.0141V13.1884H18.8427V10.0141H17.8427ZM64.5 13.1884V10.0141H63.5V13.1884H64.5ZM62.1624 14.0484H63.6461V13.0484H62.1624V14.0484ZM61.6624 13.5484V16.65H62.6624V13.5484H61.6624ZM58.2045 14.0484H62.1624V13.0484H58.2045V14.0484ZM58.7045 16.65V13.5484H57.7045V16.65H58.7045ZM61.8085 16.51H60.1834V17.51H61.8085V16.51ZM60.1834 16.51H58.5584V17.51H60.1834V16.51ZM59.6834 17.01V20.9044H60.6834V17.01H59.6834ZM60.1834 21.4044H63.6461V20.4044H60.1834V21.4044ZM63.5 21.2644V28.6215H64.5V21.2644H63.5ZM63.6461 28.4815H56.7208V29.4815H63.6461V28.4815ZM56.8669 28.6215V21.2644H55.8669V28.6215H56.8669ZM56.7208 21.4044H60.1834V20.4044H56.7208V21.4044ZM53.1158 14.0484H58.2045V13.0484H53.1158V14.0484ZM45.3413 14.0484H53.1158V13.0484H45.3413V14.0484ZM52.6158 13.5484V21.4813H53.6158V13.5484H52.6158ZM44.9842 13.8984L52.7587 21.8313L53.4729 21.1313L45.6984 13.1984L44.9842 13.8984ZM45.8413 21.4813V13.5484H44.8413V21.4813H45.8413ZM52.6158 21.4813V29.4142H53.6158V21.4813H52.6158ZM44.9842 21.8313L52.7587 29.7642L53.4729 29.0642L45.6984 21.1313L44.9842 21.8313ZM45.8413 29.4142V21.4813H44.8413V29.4142H45.8413ZM53.1158 28.9142H45.3413V29.9142H53.1158V28.9142ZM45.3413 21.9813H53.1158V20.9813H45.3413V21.9813ZM53.6158 13.5484V9.65407H52.6158V13.5484H53.6158ZM44.8413 9.65407V13.5484H45.8413V9.65407H44.8413ZM48.7724 1.20487L52.6597 9.85894L53.5719 9.4492L49.6846 0.795129L48.7724 1.20487ZM48.7724 0.795129L44.8852 9.4492L45.7974 9.85894L49.6846 1.20487L48.7724 0.795129ZM63.6461 9.15407H60.1834V10.1541H63.6461V9.15407ZM60.1834 9.15407H53.1158V10.1541H60.1834V9.15407ZM48.9186 1.39235L59.8735 10.0464L60.4934 9.26173L49.5385 0.607653L48.9186 1.39235ZM45.3413 9.15407H22.5833V10.1541H45.3413V9.15407ZM22.5833 9.15407H18.6966V10.1541H22.5833V9.15407ZM49.0741 0.524453L22.4289 9.17852L22.7378 10.1296L49.383 1.47555L49.0741 0.524453ZM18.6966 14.0484H25.2444V13.0484H18.6966V14.0484ZM25.2444 14.0484H45.3413V13.0484H25.2444V14.0484ZM24.7444 13.5484V22.06H25.7444V13.5484H24.7444ZM24.9363 22.4538L27.2368 24.2538L27.8531 23.4662L25.5525 21.6662L24.9363 22.4538ZM23.9374 31.38H27.0839V30.38H23.9374V31.38ZM27.5608 31.2334L28.5334 30.5738L27.9722 29.7462L26.9996 30.4057L27.5608 31.2334ZM21.4846 24.8239C21.3055 24.9879 21.2051 25.2195 21.2051 25.4603H22.2051C22.2051 25.497 22.1898 25.5341 22.1598 25.5615L21.4846 24.8239ZM21.2051 29.2234C21.2051 29.5048 21.342 29.7712 21.5762 29.9328L22.1443 29.1098C22.1843 29.1375 22.2051 29.1807 22.2051 29.2234H21.2051ZM63.6461 21.4044C63.5574 21.4044 63.5 21.3336 63.5 21.2644H64.5C64.5 20.7974 64.1257 20.4044 63.6461 20.4044V21.4044ZM57.7045 16.65C57.7045 17.117 58.0788 17.51 58.5584 17.51V16.51C58.6471 16.51 58.7045 16.5808 58.7045 16.65H57.7045ZM64.5 10.0141C64.5 9.54715 64.1257 9.15407 63.6461 9.15407V10.1541C63.5574 10.1541 63.5 10.0833 63.5 10.0141H64.5ZM27.0839 31.38C27.2544 31.38 27.4203 31.3286 27.5608 31.2334L26.9996 30.4057C27.0238 30.3893 27.0531 30.38 27.0839 30.38V31.38ZM56.8669 21.2644C56.8669 21.3336 56.8095 21.4044 56.7208 21.4044V20.4044C56.2412 20.4044 55.8669 20.7974 55.8669 21.2644H56.8669ZM63.5 13.1884C63.5 13.1191 63.5574 13.0484 63.6461 13.0484V14.0484C64.1257 14.0484 64.5 13.6553 64.5 13.1884H63.5ZM56.7208 28.4815C56.8095 28.4815 56.8669 28.5522 56.8669 28.6215H55.8669C55.8669 29.0884 56.2412 29.4815 56.7208 29.4815V28.4815ZM17.8427 13.1884C17.8427 13.6553 18.217 14.0484 18.6966 14.0484V13.0484C18.7853 13.0484 18.8427 13.1191 18.8427 13.1884H17.8427ZM61.6624 16.65C61.6624 16.5808 61.7198 16.51 61.8085 16.51V17.51C62.2881 17.51 62.6624 17.117 62.6624 16.65H61.6624ZM23.4546 31.2294C23.5963 31.3272 23.7645 31.38 23.9374 31.38V30.38C23.9686 30.38 23.9983 30.3896 24.0227 30.4064L23.4546 31.2294ZM63.5 28.6215C63.5 28.5522 63.5574 28.4815 63.6461 28.4815V29.4815C64.1257 29.4815 64.5 29.0884 64.5 28.6215H63.5ZM18.8427 10.0141C18.8427 10.0833 18.7853 10.1541 18.6966 10.1541V9.15407C18.217 9.15407 17.8427 9.54715 17.8427 10.0141H18.8427ZM1.5 55.3891V37.6036H0.5V55.3891H1.5ZM58.1292 55.3891V37.6036H57.1292V55.3891H58.1292ZM1 38.1036H5.7153V37.1036H1V38.1036ZM5.7153 38.1036H10.4306V37.1036H5.7153V38.1036ZM10.4306 38.1036H15.1459V37.1036H10.4306V38.1036ZM15.1459 38.1036H19.8612V37.1036H15.1459V38.1036ZM19.8612 38.1036H24.5765V37.1036H19.8612V38.1036ZM24.5765 38.1036H29.2918V37.1036H24.5765V38.1036ZM29.2918 38.1036H34.0071V37.1036H29.2918V38.1036ZM34.0071 38.1036H38.7224V37.1036H34.0071V38.1036ZM38.7224 38.1036H43.4377V37.1036H38.7224V38.1036ZM43.4377 38.1036H48.153V37.1036H43.4377V38.1036ZM48.153 38.1036H52.8683V37.1036H48.153V38.1036ZM52.8683 38.1036H57.6292V37.1036H52.8683V38.1036ZM1.5 37.6036V33.8218H0.5V37.6036H1.5ZM1.5 33.8218V31.96H0.5V33.8218H1.5ZM58.1292 37.6036V33.8218H57.1292V37.6036H58.1292ZM58.1292 33.8218V31.96H57.1292V33.8218H58.1292ZM53.3683 55.7491V37.6036H52.3683V55.7491H53.3683ZM48.653 55.7491V37.6036H47.653V55.7491H48.653ZM43.9377 55.7491V37.6036H42.9377V55.7491H43.9377ZM39.2224 55.7491V37.6036H38.2224V55.7491H39.2224ZM34.5071 55.7491V37.6036H33.5071V55.7491H34.5071ZM29.7918 55.7491V37.6036H28.7918V55.7491H29.7918ZM25.0765 55.7491V37.6036H24.0765V55.7491H25.0765ZM20.3612 55.7491V37.6036H19.3612V55.7491H20.3612ZM15.6459 55.7491V37.6036H14.6459V55.7491H15.6459ZM10.9306 55.7491V37.6036H9.9306V55.7491H10.9306ZM6.2153 55.7491V37.6036H5.2153V55.7491H6.2153ZM48.153 56.2491H52.8683V55.2491H48.153V56.2491ZM43.4377 56.2491H48.153V55.2491H43.4377V56.2491ZM38.7224 56.2491H43.4377V55.2491H38.7224V56.2491ZM34.0071 56.2491H38.7224V55.2491H34.0071V56.2491ZM29.2918 56.2491H34.0071V55.2491H29.2918V56.2491ZM24.5765 56.2491H29.2918V55.2491H24.5765V56.2491ZM19.8612 56.2491H24.5765V55.2491H19.8612V56.2491ZM15.1459 56.2491H19.8612V55.2491H15.1459V56.2491ZM10.4306 56.2491H15.1459V55.2491H10.4306V56.2491ZM5.7153 56.2491H10.4306V55.2491H5.7153V56.2491ZM1.35393 56.2491H2.48423V55.2491H1.35393V56.2491ZM2.48423 56.2491H5.7153V55.2491H2.48423V56.2491ZM52.8683 56.2491H56.145V55.2491H52.8683V56.2491ZM56.145 56.2491H57.2753V55.2491H56.145V56.2491ZM54.0237 61.2073C54.0237 62.4825 53.0119 63.5 51.7836 63.5V64.5C53.582 64.5 55.0237 63.0168 55.0237 61.2073H54.0237ZM51.7836 63.5C50.5554 63.5 49.5435 62.4825 49.5435 61.2073H48.5435C48.5435 63.0168 49.9852 64.5 51.7836 64.5V63.5ZM18.2195 61.2073C18.2195 62.4825 17.2076 63.5 15.9793 63.5V64.5C17.7777 64.5 19.2195 63.0168 19.2195 61.2073H18.2195ZM15.9793 63.5C14.7511 63.5 13.7392 62.4825 13.7392 61.2073H12.7392C12.7392 63.0168 14.1809 64.5 15.9793 64.5V63.5ZM44.89 61.2073C44.89 62.4825 43.8781 63.5 42.6499 63.5V64.5C44.4483 64.5 45.89 63.0168 45.89 61.2073H44.89ZM42.6499 63.5C41.4216 63.5 40.4097 62.4825 40.4097 61.2073H39.4097C39.4097 63.0168 40.8515 64.5 42.6499 64.5V63.5ZM9.08572 61.2073C9.08572 62.4825 8.07386 63.5 6.8456 63.5V64.5C8.64399 64.5 10.0857 63.0168 10.0857 61.2073H9.08572ZM6.8456 63.5C5.61733 63.5 4.60547 62.4825 4.60547 61.2073H3.60547C3.60547 63.0168 5.04721 64.5 6.8456 64.5V63.5ZM48.6631 60.3182C48.5851 60.6016 48.5435 60.8999 48.5435 61.2073H49.5435C49.5435 60.9904 49.5728 60.7813 49.6272 60.5837L48.6631 60.3182ZM55.0237 61.2073C55.0237 59.9335 54.3112 58.825 53.264 58.2777L52.8008 59.1639C53.5245 59.5422 54.0237 60.3131 54.0237 61.2073H55.0237ZM49.6272 60.5837C49.8941 59.6145 50.7639 58.9145 51.7836 58.9145V57.9145C50.291 57.9145 49.0434 58.9375 48.6631 60.3181L49.6272 60.5837ZM51.7836 58.9145C52.1506 58.9145 52.4958 59.0045 52.8008 59.1639L53.264 58.2777C52.82 58.0456 52.3163 57.9145 51.7836 57.9145V58.9145ZM55.7997 55.3874L52.6871 58.3591L53.3777 59.0824L56.4902 56.1107L55.7997 55.3874ZM45.89 61.2073C45.89 60.8999 45.8484 60.6016 45.7704 60.3182L44.8063 60.5837C44.8607 60.7813 44.89 60.9904 44.89 61.2073H45.89ZM39.5294 60.3182C39.4513 60.6016 39.4097 60.8999 39.4097 61.2073H40.4097C40.4097 60.9904 40.439 60.7813 40.4935 60.5837L39.5294 60.3182ZM40.4935 60.5837C40.7604 59.6145 41.6302 58.9145 42.6499 58.9145V57.9145C41.1573 57.9145 39.9096 58.9375 39.5294 60.3182L40.4935 60.5837ZM49.1452 59.9509H45.2883V60.9509H49.1452V59.9509ZM42.6499 58.9145C43.6696 58.9145 44.5393 59.6145 44.8063 60.5837L45.7704 60.3181C45.3901 58.9375 44.1425 57.9145 42.6499 57.9145V58.9145ZM19.2195 61.2073C19.2195 60.8999 19.1779 60.6016 19.0998 60.3182L18.1357 60.5837C18.1902 60.7813 18.2195 60.9904 18.2195 61.2073H19.2195ZM12.8588 60.3181C12.7808 60.6016 12.7392 60.8999 12.7392 61.2073H13.7392C13.7392 60.9904 13.7685 60.7813 13.823 60.5837L12.8588 60.3181ZM13.823 60.5837C14.0899 59.6145 14.9596 58.9145 15.9793 58.9145V57.9145C14.4868 57.9145 13.2391 58.9375 12.8588 60.3182L13.823 60.5837ZM40.0114 59.9509H18.6178V60.9509H40.0114V59.9509ZM15.9793 58.9145C16.999 58.9145 17.8688 59.6145 18.1357 60.5837L19.0998 60.3182C18.7196 58.9375 17.4719 57.9145 15.9793 57.9145V58.9145ZM5.36519 58.2777C4.31805 58.825 3.60547 59.9335 3.60547 61.2073H4.60547C4.60547 60.3131 5.1047 59.5422 5.82845 59.1639L5.36519 58.2777ZM10.0857 61.2073C10.0857 60.8999 10.0442 60.6016 9.96609 60.3182L9.00198 60.5837C9.05642 60.7813 9.08572 60.9904 9.08572 61.2073H10.0857ZM13.3409 59.9509H9.48404V60.9509H13.3409V59.9509ZM5.82845 59.1639C6.13342 59.0045 6.47866 58.9145 6.8456 58.9145V57.9145C6.31293 57.9145 5.80919 58.0456 5.36519 58.2777L5.82845 59.1639ZM6.8456 58.9145C7.8653 58.9145 8.73507 59.6145 9.00198 60.5837L9.96609 60.3182C9.58586 58.9375 8.33818 57.9145 6.8456 57.9145V58.9145ZM2.13896 56.1107L5.25155 59.0824L5.94209 58.3591L2.82951 55.3874L2.13896 56.1107ZM57.1292 55.3891C57.1292 55.3198 57.1866 55.2491 57.2753 55.2491V56.2491C57.7549 56.2491 58.1292 55.856 58.1292 55.3891H57.1292ZM0.5 55.3891C0.5 55.856 0.87434 56.2491 1.35393 56.2491V55.2491C1.44258 55.2491 1.5 55.3198 1.5 55.3891H0.5ZM53.1158 9.15407H45.3413V10.1541H53.1158V9.15407ZM42.0562 23.54H23.0815V24.54H42.0562V23.54ZM22.7438 23.6712L21.4846 24.8239L22.1598 25.5615L23.4191 24.4088L22.7438 23.6712ZM21.2051 25.4603V25.84H22.2051V25.4603H21.2051ZM24.9068 21.6912L22.7438 23.6712L23.4191 24.4088L25.582 22.4288L24.9068 21.6912ZM23.0815 23.54H6.66292V24.54H23.0815V23.54ZM21.7051 26.7H41.3483V25.7H21.7051V26.7ZM41.3483 26.7H42.0562V25.7H41.3483V26.7ZM21.2051 25.84V26.2H22.2051V25.84H21.2051ZM21.7051 26.7H42.0562V25.7H21.7051V26.7ZM21.2051 26.2V28H22.2051V26.2H21.2051ZM21.7051 28.86H41.3483V27.86H21.7051V28.86ZM21.2051 28V28.36H22.2051V28H21.2051ZM21.2051 28.36V29.2234H22.2051V28.36H21.2051ZM22.7855 30.66H28.2528V29.66H22.7855V30.66ZM28.2528 30.66H42.0562V29.66H28.2528V30.66ZM42.0562 27.5H41.7022V28.5H42.0562V27.5ZM21.5762 29.9328L22.5015 30.5715L23.0696 29.7485L22.1443 29.1098L21.5762 29.9328ZM22.5015 30.5715L23.4546 31.2294L24.0227 30.4064L23.0696 29.7485L22.5015 30.5715ZM6.66292 30.66H22.7855V29.66H6.66292V30.66ZM22.7855 30.66H42.0562V29.66H22.7855V30.66ZM42.764 27.5H42.0562V28.5H42.764V27.5ZM5.95506 28.86H6.30899V27.86H5.95506V28.86ZM7.01685 25.7H5.95506V26.7H7.01685V25.7ZM21.7051 25.7H7.01685V26.7H21.7051V25.7ZM6.30899 28.86H21.7051V27.86H6.30899V28.86ZM42.764 25.34H42.4101V26.34H42.764V25.34ZM53.1158 33.3218H49.6609V34.3218H53.1158V33.3218ZM44.9842 29.7642L49.3038 34.1718L50.018 33.4718L45.6984 29.0642L44.9842 29.7642ZM53.1158 34.3218H57.6292V33.3218H53.1158V34.3218ZM52.6158 29.4142V33.8218H53.6158V29.4142H52.6158ZM49.6609 33.3218H45.3413V34.3218H49.6609V33.3218ZM1 34.3218H45.3413V33.3218H1V34.3218ZM45.8413 33.8218V29.4142H44.8413V33.8218H45.8413Z" fill="#2671B0"/>
</svg>
