<svg width="100" height="33" viewBox="0 0 100 33" fill="none" xmlns="http://www.w3.org/2000/svg">
<path d="M20.9522 7.12595V2C20.9522 1.17157 21.6238 0.5 22.4522 0.5H97.4453C98.2737 0.5 98.9453 1.17157 98.9453 2V20.4513C98.9453 21.0541 98.5898 21.5738 98.077 21.8122C98.5898 22.0507 98.9453 22.5704 98.9453 23.1731V26.2258C98.9453 27.0543 98.2737 27.7258 97.4453 27.7258H96.9018H96.4877L96.4105 27.3191C96.3217 26.8511 96.1915 26.436 95.9816 25.9985C95.3194 24.618 93.7757 23.6441 92.1508 23.5512C91.452 23.5113 90.5211 23.6693 89.9137 23.9585C88.8632 24.4587 87.874 25.4182 87.4977 26.6344L20.9522 7.12595ZM20.9522 7.12595C20.9284 7.10857 20.9034 7.09271 20.8774 7.07852L20.9522 7.12595ZM87.4977 26.6345C87.369 27.051 87.2821 27.5019 87.2468 27.9364L86.2517 27.9526C86.165 27.1933 86.0251 26.6161 85.7289 25.9985C85.0666 24.618 83.523 23.6441 81.8981 23.5512C81.1992 23.5113 80.2684 23.6693 79.661 23.9585C78.6105 24.4587 77.6212 25.4182 77.245 26.6344C77.1134 27.0601 77.0286 27.4193 76.9946 27.9292C76.986 28.0582 76.9856 28.2345 76.9881 28.3876C76.9893 28.4623 76.9911 28.528 76.9926 28.5749L76.9945 28.6297L76.9951 28.6439L76.9952 28.6474L76.9952 28.6481L76.9952 28.6482L76.9952 28.6482L77.0174 29.1695H76.4957H75.3851C74.5567 29.1695 73.8851 28.4979 73.8851 27.6695V25.098C73.8851 24.8218 73.6612 24.598 73.3851 24.598H46.5126C46.2365 24.598 46.0126 24.8218 46.0126 25.098V28.6695V29.1695L45.5126 29.1695L42.4396 29.1694L41.9179 29.1694L41.9401 28.6481L87.4977 26.6345ZM14.2147 15.658V9.68053H7.01459C6.54885 9.68053 6.20316 9.8938 6.07454 10.2162C5.52588 11.5914 4.96865 14.1029 4.71033 15.658H14.2147ZM5.58987 27.4476H6.9959V27.2446H5.58987V27.4476ZM5.58987 29.1695V29.3725H6.9959V29.1695H5.58987Z" stroke="#2671B0"/>
<path d="M91.8128 23.8763L91.8124 23.8763C89.2795 23.9091 87.5388 25.789 87.5438 28.2012V28.2012C87.5488 30.7044 89.394 32.5051 91.8521 32.5C94.3156 32.495 96.1623 30.5824 96.168 28.1982C96.1736 25.8019 94.1922 23.8437 91.8128 23.8763ZM81.6103 23.8759L81.6099 23.8759C79.077 23.9087 77.3363 25.7886 77.3413 28.2008V28.2008C77.3463 30.704 79.1915 32.5047 81.6496 32.4996C84.1131 32.4946 85.9598 30.582 85.9654 28.1978C85.9711 25.8014 83.9897 23.8433 81.6103 23.8759ZM37.2948 23.8762L37.2944 23.8762C34.7615 23.909 33.0208 25.7888 33.0258 28.201C33.0308 30.7042 34.876 32.5049 37.3341 32.4999C39.7976 32.4948 41.6443 30.5823 41.6499 28.1981C41.6556 25.8017 39.6742 23.8435 37.2948 23.8762ZM26.9932 23.8762L26.9928 23.8762C24.4599 23.909 22.7192 25.7888 22.7242 28.201C22.7292 30.7042 24.5744 32.5049 27.0325 32.4999C29.496 32.4948 31.3427 30.5823 31.3484 28.1981C31.354 25.8017 29.3726 23.8435 26.9932 23.8762ZM13.6164 23.8759L13.6161 23.8759C11.0831 23.9087 9.34245 25.7886 9.34745 28.2008C9.35244 30.704 11.1976 32.5047 13.6557 32.4996C16.1192 32.4946 17.966 30.582 17.9716 28.1978C17.9772 25.8015 15.9958 23.8433 13.6164 23.8759Z" stroke="#2671B0"/>
</svg>
