<svg width="120" height="84" viewBox="0 0 120 84" fill="none" xmlns="http://www.w3.org/2000/svg">
<path d="M116.466 4.21125C109.193 1.16063 101.914 2.25517e-07 94.6391 2.25517e-07C71.5451 -0.00187477 48.453 11.6887 25.359 11.6887C19.5672 11.6887 13.7792 10.9538 7.98737 9.11625C7.33676 8.91 6.68427 8.8125 6.04678 8.8125C2.81996 8.8125 0 11.31 0 14.7769V74.2631C0 76.6312 1.3556 78.8756 3.53244 79.7869C10.8055 82.8394 18.0841 84 25.359 84C48.453 84 71.547 72.3094 94.641 72.3094C100.433 72.3094 106.221 73.0444 112.013 74.8819C112.663 75.0881 113.316 75.1856 113.953 75.1856C117.18 75.1856 120 72.6881 120 69.2213V9.73688C119.998 7.36688 118.643 5.12438 116.466 4.21125ZM59.9991 60C51.7136 60 44.9993 51.9394 44.9993 42C44.9993 32.0588 51.7154 24 59.9991 24C68.2827 24 74.9988 32.0588 74.9988 42C74.9988 51.9431 68.2808 60 59.9991 60Z" fill="url(#paint0_linear_215_3624)"/>
<defs>
<linearGradient id="paint0_linear_215_3624" x1="120" y1="5.96842" x2="-5.90696" y2="57.336" gradientUnits="userSpaceOnUse">
<stop stop-color="#FF7200"/>
<stop offset="1" stop-color="#FF4100"/>
</linearGradient>
</defs>
</svg>
