<svg width="75" height="100" viewBox="0 0 75 100" fill="none" xmlns="http://www.w3.org/2000/svg">
<path d="M43.75 26.5625V0H4.6875C2.08984 0 0 2.08984 0 4.6875V95.3125C0 97.9102 2.08984 100 4.6875 100H70.3125C72.9102 100 75 97.9102 75 95.3125V31.25H48.4375C45.8594 31.25 43.75 29.1406 43.75 26.5625ZM12.5 14.0625C12.5 13.1992 13.1992 12.5 14.0625 12.5H29.6875C30.5508 12.5 31.25 13.1992 31.25 14.0625V17.1875C31.25 18.0508 30.5508 18.75 29.6875 18.75H14.0625C13.1992 18.75 12.5 18.0508 12.5 17.1875V14.0625ZM12.5 26.5625C12.5 25.6992 13.1992 25 14.0625 25H29.6875C30.5508 25 31.25 25.6992 31.25 26.5625V29.6875C31.25 30.5508 30.5508 31.25 29.6875 31.25H14.0625C13.1992 31.25 12.5 30.5508 12.5 29.6875V26.5625ZM50.1582 75H59.375C61.1016 75 62.5 76.3984 62.5 78.125C62.5 79.8516 61.1016 81.25 59.375 81.25H50.1582C46.9453 81.25 44.0508 79.4648 42.6113 76.5898C42.0352 75.4336 41.0312 75.3164 40.625 75.3164C40.2188 75.3164 39.2148 75.4316 38.668 76.5254L37.1699 79.5215C36.9105 80.0406 36.5116 80.4771 36.0179 80.7821C35.5242 81.0871 34.9553 81.2484 34.375 81.248C34.3008 81.248 34.2285 81.2441 34.1523 81.2383C32.8926 81.1504 31.8086 80.3105 31.4121 79.1113L28.125 69.2559L26.0527 75.4824C24.9023 78.9316 21.6816 81.25 18.0449 81.25H15.625C13.8984 81.25 12.5 79.8516 12.5 78.125C12.5 76.3984 13.8984 75 15.625 75H18.0449C18.9883 75 19.8242 74.3984 20.123 73.5039L23.6758 62.832C24.3203 60.916 26.1055 59.627 28.125 59.627C30.1445 59.627 31.9297 60.9141 32.5723 62.832L35.2832 70.9648C39.1445 67.8027 45.8398 69.0703 48.1738 73.7305C48.5684 74.5234 49.3379 75 50.1582 75ZM73.6328 20.5078L54.5117 1.36719C53.6328 0.488281 52.4414 0 51.1914 0H50V25H75V23.8086C75 22.5781 74.5117 21.3867 73.6328 20.5078Z" fill="url(#paint0_linear_215_3630)"/>
<defs>
<linearGradient id="paint0_linear_215_3630" x1="75" y1="7.10526" x2="-12.7636" y2="25.9033" gradientUnits="userSpaceOnUse">
<stop stop-color="#FF7200"/>
<stop offset="1" stop-color="#FF4100"/>
</linearGradient>
</defs>
</svg>
